# xmcd CD database file
#
# Track frame offsets:
#	225
#	13506
#	27744
#	40024
#	53862
#	68803
#	83319
#	97202
#	115747
#	128871
#
# Disc length: 1867 seconds
#
# Revision: 0
# Processed by: cddbd v1.5.2PL0 Copyright (c) Steve Scherf et al.
# Submitted via: CDex 1.70beta2
#
DISCID=7d07480a
DTITLE=Katie Kern - Katie Kern
DYEAR=2008
DGENRE=Country
TTITLE0=Sombody After My Own Heart
TTITLE1=One Step Ahead Of You
TTITLE2=Double Dare
TTITLE3=Hearts In Paris
TTITLE4=Totally Hot
TTITLE5=My Lucky Day
TTITLE6=Might As Well Be Me
TTITLE7=First To Last
TTITLE8=Any Given Day In America
TTITLE9=Tennessee Yodeler
EXTD=YEAR: 2008
EXTT0=
EXTT1=
EXTT2=
EXTT3=
EXTT4=
EXTT5=
EXTT6=
EXTT7=
EXTT8=
EXTT9=
PLAYORDER=
